<svg width="59" height="57" viewBox="0 0 59 57" fill="none" xmlns="http://www.w3.org/2000/svg">
<rect width="59" height="57" rx="7" fill="white"/>
<path d="M43.2 22.3125C43.2 21.3375 43.1125 20.4 42.95 19.5H30V24.825H37.4C37.075 26.5375 36.1 27.9875 34.6375 28.9625V32.425H39.1C41.7 30.025 43.2 26.5 43.2 22.3125Z" fill="#4285F4"/>
<path d="M29.9996 35.75C33.7121 35.75 36.8246 34.525 39.0996 32.425L34.6371 28.9625C33.4121 29.7875 31.8496 30.2875 29.9996 30.2875C26.4246 30.2875 23.3871 27.875 22.2996 24.625H17.7246V28.175C19.9871 32.6625 24.6246 35.75 29.9996 35.75Z" fill="#34A853"/>
<path d="M22.3 24.6125C22.025 23.7875 21.8625 22.9125 21.8625 22C21.8625 21.0875 22.025 20.2125 22.3 19.3875V15.8375H17.725C16.7875 17.6875 16.25 19.775 16.25 22C16.25 24.225 16.7875 26.3125 17.725 28.1625L21.2875 25.3875L22.3 24.6125Z" fill="#FBBC05"/>
<path d="M29.9996 13.725C32.0246 13.725 33.8246 14.425 35.2621 15.775L39.1996 11.8375C36.8121 9.6125 33.7121 8.25 29.9996 8.25C24.6246 8.25 19.9871 11.3375 17.7246 15.8375L22.2996 19.3875C23.3871 16.1375 26.4246 13.725 29.9996 13.725Z" fill="#EA4335"/>
<path d="M9.9843 44.072C9.8883 43.896 9.7563 43.762 9.5883 43.67C9.4203 43.578 9.2243 43.532 9.0003 43.532C8.7523 43.532 8.5323 43.588 8.3403 43.7C8.1483 43.812 7.9983 43.972 7.8903 44.18C7.7823 44.388 7.7283 44.628 7.7283 44.9C7.7283 45.18 7.7823 45.424 7.8903 45.632C8.0023 45.84 8.1563 46 8.3523 46.112C8.5483 46.224 8.7763 46.28 9.0363 46.28C9.3563 46.28 9.6183 46.196 9.8223 46.028C10.0263 45.856 10.1603 45.618 10.2243 45.314H8.7843V44.672H11.0523V45.404C10.9963 45.696 10.8763 45.966 10.6923 46.214C10.5083 46.462 10.2703 46.662 9.9783 46.814C9.6903 46.962 9.3663 47.036 9.0063 47.036C8.6023 47.036 8.2363 46.946 7.9083 46.766C7.5843 46.582 7.3283 46.328 7.1403 46.004C6.9563 45.68 6.8643 45.312 6.8643 44.9C6.8643 44.488 6.9563 44.12 7.1403 43.796C7.3283 43.468 7.5843 43.214 7.9083 43.034C8.2363 42.85 8.6003 42.758 9.0003 42.758C9.4723 42.758 9.8823 42.874 10.2303 43.106C10.5783 43.334 10.8183 43.656 10.9503 44.072H9.9843ZM13.1498 47.054C12.8298 47.054 12.5418 46.984 12.2858 46.844C12.0298 46.7 11.8278 46.498 11.6798 46.238C11.5358 45.978 11.4638 45.678 11.4638 45.338C11.4638 44.998 11.5378 44.698 11.6858 44.438C11.8378 44.178 12.0438 43.978 12.3038 43.838C12.5638 43.694 12.8538 43.622 13.1738 43.622C13.4938 43.622 13.7838 43.694 14.0438 43.838C14.3038 43.978 14.5078 44.178 14.6558 44.438C14.8078 44.698 14.8838 44.998 14.8838 45.338C14.8838 45.678 14.8058 45.978 14.6498 46.238C14.4978 46.498 14.2898 46.7 14.0258 46.844C13.7658 46.984 13.4738 47.054 13.1498 47.054ZM13.1498 46.322C13.3018 46.322 13.4438 46.286 13.5758 46.214C13.7118 46.138 13.8198 46.026 13.8998 45.878C13.9798 45.73 14.0198 45.55 14.0198 45.338C14.0198 45.022 13.9358 44.78 13.7678 44.612C13.6038 44.44 13.4018 44.354 13.1618 44.354C12.9218 44.354 12.7198 44.44 12.5558 44.612C12.3958 44.78 12.3158 45.022 12.3158 45.338C12.3158 45.654 12.3938 45.898 12.5498 46.07C12.7098 46.238 12.9098 46.322 13.1498 46.322ZM16.9759 47.054C16.6559 47.054 16.3679 46.984 16.1119 46.844C15.8559 46.7 15.6539 46.498 15.5059 46.238C15.3619 45.978 15.2899 45.678 15.2899 45.338C15.2899 44.998 15.3639 44.698 15.5119 44.438C15.6639 44.178 15.8699 43.978 16.1299 43.838C16.3899 43.694 16.6799 43.622 16.9999 43.622C17.3199 43.622 17.6099 43.694 17.8699 43.838C18.1299 43.978 18.3339 44.178 18.4819 44.438C18.6339 44.698 18.7099 44.998 18.7099 45.338C18.7099 45.678 18.6319 45.978 18.4759 46.238C18.3239 46.498 18.1159 46.7 17.8519 46.844C17.5919 46.984 17.2999 47.054 16.9759 47.054ZM16.9759 46.322C17.1279 46.322 17.2699 46.286 17.4019 46.214C17.5379 46.138 17.6459 46.026 17.7259 45.878C17.8059 45.73 17.8459 45.55 17.8459 45.338C17.8459 45.022 17.7619 44.78 17.5939 44.612C17.4299 44.44 17.2279 44.354 16.9879 44.354C16.7479 44.354 16.5459 44.44 16.3819 44.612C16.2219 44.78 16.1419 45.022 16.1419 45.338C16.1419 45.654 16.2199 45.898 16.3759 46.07C16.5359 46.238 16.7359 46.322 16.9759 46.322ZM20.6281 43.622C20.8761 43.622 21.0941 43.672 21.2821 43.772C21.4701 43.868 21.6181 43.994 21.7261 44.15V43.676H22.5721V47.024C22.5721 47.332 22.5101 47.606 22.3861 47.846C22.2621 48.09 22.0761 48.282 21.8281 48.422C21.5801 48.566 21.2801 48.638 20.9281 48.638C20.4561 48.638 20.0681 48.528 19.7641 48.308C19.4641 48.088 19.2941 47.788 19.2541 47.408H20.0881C20.1321 47.56 20.2261 47.68 20.3701 47.768C20.5181 47.86 20.6961 47.906 20.9041 47.906C21.1481 47.906 21.3461 47.832 21.4981 47.684C21.6501 47.54 21.7261 47.32 21.7261 47.024V46.508C21.6181 46.664 21.4681 46.794 21.2761 46.898C21.0881 47.002 20.8721 47.054 20.6281 47.054C20.3481 47.054 20.0921 46.982 19.8601 46.838C19.6281 46.694 19.4441 46.492 19.3081 46.232C19.1761 45.968 19.1101 45.666 19.1101 45.326C19.1101 44.99 19.1761 44.692 19.3081 44.432C19.4441 44.172 19.6261 43.972 19.8541 43.832C20.0861 43.692 20.3441 43.622 20.6281 43.622ZM21.7261 45.338C21.7261 45.134 21.6861 44.96 21.6061 44.816C21.5261 44.668 21.4181 44.556 21.2821 44.48C21.1461 44.4 21.0001 44.36 20.8441 44.36C20.6881 44.36 20.5441 44.398 20.4121 44.474C20.2801 44.55 20.1721 44.662 20.0881 44.81C20.0081 44.954 19.9681 45.126 19.9681 45.326C19.9681 45.526 20.0081 45.702 20.0881 45.854C20.1721 46.002 20.2801 46.116 20.4121 46.196C20.5481 46.276 20.6921 46.316 20.8441 46.316C21.0001 46.316 21.1461 46.278 21.2821 46.202C21.4181 46.122 21.5261 46.01 21.6061 45.866C21.6861 45.718 21.7261 45.542 21.7261 45.338ZM24.2325 42.56V47H23.3925V42.56H24.2325ZM28.1524 45.266C28.1524 45.386 28.1444 45.494 28.1284 45.59H25.6984C25.7184 45.83 25.8024 46.018 25.9504 46.154C26.0984 46.29 26.2804 46.358 26.4964 46.358C26.8084 46.358 27.0304 46.224 27.1624 45.956H28.0684C27.9724 46.276 27.7884 46.54 27.5164 46.748C27.2444 46.952 26.9104 47.054 26.5144 47.054C26.1944 47.054 25.9064 46.984 25.6504 46.844C25.3984 46.7 25.2004 46.498 25.0564 46.238C24.9164 45.978 24.8464 45.678 24.8464 45.338C24.8464 44.994 24.9164 44.692 25.0564 44.432C25.1964 44.172 25.3924 43.972 25.6444 43.832C25.8964 43.692 26.1864 43.622 26.5144 43.622C26.8304 43.622 27.1124 43.69 27.3604 43.826C27.6124 43.962 27.8064 44.156 27.9424 44.408C28.0824 44.656 28.1524 44.942 28.1524 45.266ZM27.2824 45.026C27.2784 44.81 27.2004 44.638 27.0484 44.51C26.8964 44.378 26.7104 44.312 26.4904 44.312C26.2824 44.312 26.1064 44.376 25.9624 44.504C25.8224 44.628 25.7364 44.802 25.7044 45.026H27.2824ZM33.2493 44.108C33.2493 44.332 33.1953 44.542 33.0872 44.738C32.9833 44.934 32.8173 45.092 32.5893 45.212C32.3653 45.332 32.0813 45.392 31.7373 45.392H31.0353V47H30.1953V42.812H31.7373C32.0613 42.812 32.3373 42.868 32.5653 42.98C32.7933 43.092 32.9633 43.246 33.0753 43.442C33.1913 43.638 33.2493 43.86 33.2493 44.108ZM31.7013 44.714C31.9333 44.714 32.1053 44.662 32.2173 44.558C32.3293 44.45 32.3853 44.3 32.3853 44.108C32.3853 43.7 32.1573 43.496 31.7013 43.496H31.0353V44.714H31.7013ZM33.6296 45.326C33.6296 44.99 33.6956 44.692 33.8276 44.432C33.9636 44.172 34.1456 43.972 34.3736 43.832C34.6056 43.692 34.8636 43.622 35.1476 43.622C35.3956 43.622 35.6116 43.672 35.7956 43.772C35.9836 43.872 36.1336 43.998 36.2456 44.15V43.676H37.0916V47H36.2456V46.514C36.1376 46.67 35.9876 46.8 35.7956 46.904C35.6076 47.004 35.3896 47.054 35.1416 47.054C34.8616 47.054 34.6056 46.982 34.3736 46.838C34.1456 46.694 33.9636 46.492 33.8276 46.232C33.6956 45.968 33.6296 45.666 33.6296 45.326ZM36.2456 45.338C36.2456 45.134 36.2056 44.96 36.1256 44.816C36.0456 44.668 35.9376 44.556 35.8016 44.48C35.6656 44.4 35.5196 44.36 35.3636 44.36C35.2076 44.36 35.0636 44.398 34.9316 44.474C34.7996 44.55 34.6916 44.662 34.6076 44.81C34.5276 44.954 34.4876 45.126 34.4876 45.326C34.4876 45.526 34.5276 45.702 34.6076 45.854C34.6916 46.002 34.7996 46.116 34.9316 46.196C35.0676 46.276 35.2116 46.316 35.3636 46.316C35.5196 46.316 35.6656 46.278 35.8016 46.202C35.9376 46.122 36.0456 46.01 36.1256 45.866C36.2056 45.718 36.2456 45.542 36.2456 45.338ZM38.752 44.192C38.86 44.016 39 43.878 39.172 43.778C39.348 43.678 39.548 43.628 39.772 43.628V44.51H39.55C39.286 44.51 39.086 44.572 38.95 44.696C38.818 44.82 38.752 45.036 38.752 45.344V47H37.912V43.676H38.752V44.192ZM41.3158 44.366V45.974C41.3158 46.086 41.3418 46.168 41.3938 46.22C41.4498 46.268 41.5418 46.292 41.6698 46.292H42.0598V47H41.5318C40.8238 47 40.4698 46.656 40.4698 45.968V44.366H40.0738V43.676H40.4698V42.854H41.3158V43.676H42.0598V44.366H41.3158ZM44.506 43.628C44.902 43.628 45.222 43.754 45.466 44.006C45.71 44.254 45.832 44.602 45.832 45.05V47H44.992V45.164C44.992 44.9 44.926 44.698 44.794 44.558C44.662 44.414 44.482 44.342 44.254 44.342C44.022 44.342 43.838 44.414 43.702 44.558C43.57 44.698 43.504 44.9 43.504 45.164V47H42.664V43.676H43.504V44.09C43.616 43.946 43.758 43.834 43.93 43.754C44.106 43.67 44.298 43.628 44.506 43.628ZM49.7208 45.266C49.7208 45.386 49.7128 45.494 49.6968 45.59H47.2668C47.2868 45.83 47.3708 46.018 47.5188 46.154C47.6668 46.29 47.8488 46.358 48.0648 46.358C48.3768 46.358 48.5988 46.224 48.7308 45.956H49.6368C49.5408 46.276 49.3568 46.54 49.0848 46.748C48.8128 46.952 48.4788 47.054 48.0828 47.054C47.7628 47.054 47.4748 46.984 47.2188 46.844C46.9668 46.7 46.7688 46.498 46.6248 46.238C46.4848 45.978 46.4148 45.678 46.4148 45.338C46.4148 44.994 46.4848 44.692 46.6248 44.432C46.7648 44.172 46.9608 43.972 47.2128 43.832C47.4648 43.692 47.7548 43.622 48.0828 43.622C48.3988 43.622 48.6808 43.69 48.9288 43.826C49.1808 43.962 49.3748 44.156 49.5108 44.408C49.6508 44.656 49.7208 44.942 49.7208 45.266ZM48.8508 45.026C48.8468 44.81 48.7688 44.638 48.6168 44.51C48.4648 44.378 48.2788 44.312 48.0588 44.312C47.8508 44.312 47.6748 44.376 47.5308 44.504C47.3908 44.628 47.3048 44.802 47.2728 45.026H48.8508ZM51.1739 44.192C51.2819 44.016 51.4219 43.878 51.5939 43.778C51.7699 43.678 51.9699 43.628 52.1939 43.628V44.51H51.9719C51.7079 44.51 51.5079 44.572 51.3719 44.696C51.2399 44.82 51.1739 45.036 51.1739 45.344V47H50.3339V43.676H51.1739V44.192Z" fill="#54595F"/>
</svg>
