<svg width="59" height="57" viewBox="0 0 59 57" fill="none" xmlns="http://www.w3.org/2000/svg">
<rect width="59" height="57" rx="7" fill="white"/>
<path d="M45.545 13.7564C44.3755 14.268 43.1386 14.6079 41.8724 14.7658C43.2067 13.972 44.2044 12.7149 44.6764 11.2328C43.427 11.9759 42.06 12.4992 40.6346 12.7801C39.7606 11.8443 38.6262 11.1937 37.3788 10.9128C36.1313 10.6319 34.8285 10.7338 33.6395 11.2052C32.4505 11.6765 31.4304 12.4956 30.7116 13.556C29.9928 14.6163 29.6086 15.8689 29.609 17.1511C29.609 17.6578 29.6517 18.1449 29.7567 18.6087C27.221 18.4841 24.7401 17.8241 22.4761 16.6719C20.2122 15.5198 18.2163 13.9014 16.6188 11.9227C15.8004 13.3294 15.5474 14.996 15.9113 16.5832C16.2752 18.1705 17.2286 19.5589 18.5775 20.4659C17.5686 20.4388 16.5809 20.1687 15.6977 19.6786V19.7488C15.6994 21.2248 16.2081 22.6552 17.1383 23.7991C18.0684 24.9431 19.3631 25.7307 20.8044 26.0295C20.2591 26.1736 19.6972 26.2444 19.1333 26.24C18.7283 26.2472 18.3237 26.2106 17.9266 26.1308C18.3384 27.3995 19.1323 28.509 20.1989 29.3064C21.2655 30.1039 22.5524 30.5501 23.8824 30.5837C21.6263 32.3532 18.8437 33.3131 15.9795 33.31C15.4568 33.31 14.9554 33.2866 14.4541 33.2223C17.3686 35.1058 20.7649 36.1021 24.2322 36.0908C35.9612 36.0908 42.3737 26.3472 42.3737 17.9014C42.3737 17.6188 42.364 17.346 42.3504 17.0751C43.6076 16.1728 44.6902 15.0482 45.545 13.7564Z" fill="#03A9F4"/>
<path d="M8.97501 44.366V45.974C8.97501 46.086 9.00101 46.168 9.05301 46.22C9.10901 46.268 9.20101 46.292 9.32901 46.292H9.71901V47H9.19101C8.48301 47 8.12901 46.656 8.12901 45.968V44.366H7.73301V43.676H8.12901V42.854H8.97501V43.676H9.71901V44.366H8.97501ZM14.9312 43.676L13.9592 47H13.0532L12.4472 44.678L11.8412 47H10.9292L9.95118 43.676H10.8032L11.3912 46.208L12.0272 43.676H12.9152L13.5392 46.202L14.1272 43.676H14.9312ZM15.8117 43.28C15.6637 43.28 15.5397 43.234 15.4397 43.142C15.3437 43.046 15.2957 42.928 15.2957 42.788C15.2957 42.648 15.3437 42.532 15.4397 42.44C15.5397 42.344 15.6637 42.296 15.8117 42.296C15.9597 42.296 16.0817 42.344 16.1777 42.44C16.2777 42.532 16.3277 42.648 16.3277 42.788C16.3277 42.928 16.2777 43.046 16.1777 43.142C16.0817 43.234 15.9597 43.28 15.8117 43.28ZM16.2257 43.676V47H15.3857V43.676H16.2257ZM18.0336 44.366V45.974C18.0336 46.086 18.0596 46.168 18.1116 46.22C18.1676 46.268 18.2596 46.292 18.3876 46.292H18.7776V47H18.2496C17.5416 47 17.1876 46.656 17.1876 45.968V44.366H16.7916V43.676H17.1876V42.854H18.0336V43.676H18.7776V44.366H18.0336ZM20.3598 44.366V45.974C20.3598 46.086 20.3858 46.168 20.4378 46.22C20.4938 46.268 20.5858 46.292 20.7138 46.292H21.1038V47H20.5758C19.8678 47 19.5138 46.656 19.5138 45.968V44.366H19.1178V43.676H19.5138V42.854H20.3598V43.676H21.1038V44.366H20.3598ZM24.7979 45.266C24.7979 45.386 24.7899 45.494 24.7739 45.59H22.3439C22.3639 45.83 22.4479 46.018 22.5959 46.154C22.7439 46.29 22.9259 46.358 23.1419 46.358C23.4539 46.358 23.6759 46.224 23.8079 45.956H24.7139C24.6179 46.276 24.4339 46.54 24.1619 46.748C23.8899 46.952 23.5559 47.054 23.1599 47.054C22.8399 47.054 22.5519 46.984 22.2959 46.844C22.0439 46.7 21.8459 46.498 21.7019 46.238C21.5619 45.978 21.4919 45.678 21.4919 45.338C21.4919 44.994 21.5619 44.692 21.7019 44.432C21.8419 44.172 22.0379 43.972 22.2899 43.832C22.5419 43.692 22.8319 43.622 23.1599 43.622C23.4759 43.622 23.7579 43.69 24.0059 43.826C24.2579 43.962 24.4519 44.156 24.5879 44.408C24.7279 44.656 24.7979 44.942 24.7979 45.266ZM23.9279 45.026C23.9239 44.81 23.8459 44.638 23.6939 44.51C23.5419 44.378 23.3559 44.312 23.1359 44.312C22.9279 44.312 22.7519 44.376 22.6079 44.504C22.4679 44.628 22.3819 44.802 22.3499 45.026H23.9279ZM26.2511 44.192C26.3591 44.016 26.4991 43.878 26.6711 43.778C26.8471 43.678 27.0471 43.628 27.2711 43.628V44.51H27.0491C26.7851 44.51 26.5851 44.572 26.4491 44.696C26.3171 44.82 26.2511 45.036 26.2511 45.344V47H25.4111V43.676H26.2511V44.192ZM32.3205 44.108C32.3205 44.332 32.2665 44.542 32.1585 44.738C32.0545 44.934 31.8885 45.092 31.6605 45.212C31.4365 45.332 31.1525 45.392 30.8085 45.392H30.1065V47H29.2665V42.812H30.8085C31.1325 42.812 31.4085 42.868 31.6365 42.98C31.8645 43.092 32.0345 43.246 32.1465 43.442C32.2625 43.638 32.3205 43.86 32.3205 44.108ZM30.7725 44.714C31.0045 44.714 31.1765 44.662 31.2885 44.558C31.4005 44.45 31.4565 44.3 31.4565 44.108C31.4565 43.7 31.2285 43.496 30.7725 43.496H30.1065V44.714H30.7725ZM32.7009 45.326C32.7009 44.99 32.7669 44.692 32.8989 44.432C33.0349 44.172 33.2169 43.972 33.4449 43.832C33.6769 43.692 33.9349 43.622 34.2189 43.622C34.4669 43.622 34.6829 43.672 34.8669 43.772C35.0549 43.872 35.2049 43.998 35.3169 44.15V43.676H36.1629V47H35.3169V46.514C35.2089 46.67 35.0589 46.8 34.8669 46.904C34.6789 47.004 34.4609 47.054 34.2129 47.054C33.9329 47.054 33.6769 46.982 33.4449 46.838C33.2169 46.694 33.0349 46.492 32.8989 46.232C32.7669 45.968 32.7009 45.666 32.7009 45.326ZM35.3169 45.338C35.3169 45.134 35.2769 44.96 35.1969 44.816C35.1169 44.668 35.0089 44.556 34.8729 44.48C34.7369 44.4 34.5909 44.36 34.4349 44.36C34.2789 44.36 34.1349 44.398 34.0029 44.474C33.8709 44.55 33.7629 44.662 33.6789 44.81C33.5989 44.954 33.5589 45.126 33.5589 45.326C33.5589 45.526 33.5989 45.702 33.6789 45.854C33.7629 46.002 33.8709 46.116 34.0029 46.196C34.1389 46.276 34.2829 46.316 34.4349 46.316C34.5909 46.316 34.7369 46.278 34.8729 46.202C35.0089 46.122 35.1169 46.01 35.1969 45.866C35.2769 45.718 35.3169 45.542 35.3169 45.338ZM37.8233 44.192C37.9313 44.016 38.0713 43.878 38.2433 43.778C38.4193 43.678 38.6193 43.628 38.8433 43.628V44.51H38.6213C38.3573 44.51 38.1573 44.572 38.0213 44.696C37.8893 44.82 37.8233 45.036 37.8233 45.344V47H36.9833V43.676H37.8233V44.192ZM40.3871 44.366V45.974C40.3871 46.086 40.4131 46.168 40.4651 46.22C40.5211 46.268 40.6131 46.292 40.7411 46.292H41.1311V47H40.6031C39.8951 47 39.5411 46.656 39.5411 45.968V44.366H39.1451V43.676H39.5411V42.854H40.3871V43.676H41.1311V44.366H40.3871ZM43.5773 43.628C43.9733 43.628 44.2933 43.754 44.5373 44.006C44.7813 44.254 44.9033 44.602 44.9033 45.05V47H44.0633V45.164C44.0633 44.9 43.9973 44.698 43.8653 44.558C43.7333 44.414 43.5533 44.342 43.3253 44.342C43.0933 44.342 42.9093 44.414 42.7733 44.558C42.6413 44.698 42.5753 44.9 42.5753 45.164V47H41.7353V43.676H42.5753V44.09C42.6873 43.946 42.8293 43.834 43.0013 43.754C43.1773 43.67 43.3693 43.628 43.5773 43.628ZM48.7921 45.266C48.7921 45.386 48.7841 45.494 48.7681 45.59H46.3381C46.3581 45.83 46.4421 46.018 46.5901 46.154C46.7381 46.29 46.9201 46.358 47.1361 46.358C47.4481 46.358 47.6701 46.224 47.8021 45.956H48.7081C48.6121 46.276 48.4281 46.54 48.1561 46.748C47.8841 46.952 47.5501 47.054 47.1541 47.054C46.8341 47.054 46.5461 46.984 46.2901 46.844C46.0381 46.7 45.8401 46.498 45.6961 46.238C45.5561 45.978 45.4861 45.678 45.4861 45.338C45.4861 44.994 45.5561 44.692 45.6961 44.432C45.8361 44.172 46.0321 43.972 46.2841 43.832C46.5361 43.692 46.8261 43.622 47.1541 43.622C47.4701 43.622 47.7521 43.69 48.0001 43.826C48.2521 43.962 48.4461 44.156 48.5821 44.408C48.7221 44.656 48.7921 44.942 48.7921 45.266ZM47.9221 45.026C47.9181 44.81 47.8401 44.638 47.6881 44.51C47.5361 44.378 47.3501 44.312 47.1301 44.312C46.9221 44.312 46.7461 44.376 46.6021 44.504C46.4621 44.628 46.3761 44.802 46.3441 45.026H47.9221ZM50.2452 44.192C50.3532 44.016 50.4932 43.878 50.6652 43.778C50.8412 43.678 51.0412 43.628 51.2652 43.628V44.51H51.0432C50.7792 44.51 50.5792 44.572 50.4432 44.696C50.3112 44.82 50.2452 45.036 50.2452 45.344V47H49.4052V43.676H50.2452V44.192Z" fill="#54595F"/>
</svg>
