<svg width="59" height="57" viewBox="0 0 59 57" fill="none" xmlns="http://www.w3.org/2000/svg">
<rect width="59" height="57" rx="7" fill="white"/>
<path d="M41.8438 8.0625H19.1562C18.3357 8.0625 17.5488 8.38845 16.9686 8.96864C16.3884 9.54883 16.0625 10.3357 16.0625 11.1562V33.8438C16.0625 34.6643 16.3884 35.4512 16.9686 36.0314C17.5488 36.6116 18.3357 36.9375 19.1562 36.9375H28.0024V27.1206H23.9419V22.5H28.0024V18.9783C28.0024 14.9725 30.3872 12.7598 34.0398 12.7598C35.789 12.7598 37.6182 13.0718 37.6182 13.0718V17.0034H35.6028C33.617 17.0034 32.9976 18.2358 32.9976 19.4997V22.5H37.4306L36.7217 27.1206H32.9976V36.9375H41.8438C42.6643 36.9375 43.4512 36.6116 44.0314 36.0314C44.6116 35.4512 44.9375 34.6643 44.9375 33.8438V11.1562C44.9375 10.3357 44.6116 9.54883 44.0314 8.96864C43.4512 8.38845 42.6643 8.0625 41.8438 8.0625Z" fill="#4054B2"/>
<path d="M5.61133 42.812V43.49H3.86533V44.564H5.20333V45.23H3.86533V47H3.02533V42.812H5.61133ZM5.99097 45.326C5.99097 44.99 6.05697 44.692 6.18897 44.432C6.32497 44.172 6.50697 43.972 6.73497 43.832C6.96697 43.692 7.22497 43.622 7.50897 43.622C7.75697 43.622 7.97297 43.672 8.15697 43.772C8.34497 43.872 8.49497 43.998 8.60697 44.15V43.676H9.45297V47H8.60697V46.514C8.49897 46.67 8.34897 46.8 8.15697 46.904C7.96897 47.004 7.75097 47.054 7.50297 47.054C7.22297 47.054 6.96697 46.982 6.73497 46.838C6.50697 46.694 6.32497 46.492 6.18897 46.232C6.05697 45.968 5.99097 45.666 5.99097 45.326ZM8.60697 45.338C8.60697 45.134 8.56697 44.96 8.48697 44.816C8.40697 44.668 8.29897 44.556 8.16297 44.48C8.02697 44.4 7.88097 44.36 7.72497 44.36C7.56897 44.36 7.42497 44.398 7.29297 44.474C7.16097 44.55 7.05297 44.662 6.96897 44.81C6.88897 44.954 6.84897 45.126 6.84897 45.326C6.84897 45.526 6.88897 45.702 6.96897 45.854C7.05297 46.002 7.16097 46.116 7.29297 46.196C7.42897 46.276 7.57297 46.316 7.72497 46.316C7.88097 46.316 8.02697 46.278 8.16297 46.202C8.29897 46.122 8.40697 46.01 8.48697 45.866C8.56697 45.718 8.60697 45.542 8.60697 45.338ZM10.0574 45.338C10.0574 44.994 10.1274 44.694 10.2674 44.438C10.4074 44.178 10.6014 43.978 10.8494 43.838C11.0974 43.694 11.3814 43.622 11.7014 43.622C12.1134 43.622 12.4534 43.726 12.7214 43.934C12.9934 44.138 13.1754 44.426 13.2674 44.798H12.3614C12.3134 44.654 12.2314 44.542 12.1154 44.462C12.0034 44.378 11.8634 44.336 11.6954 44.336C11.4554 44.336 11.2654 44.424 11.1254 44.6C10.9854 44.772 10.9154 45.018 10.9154 45.338C10.9154 45.654 10.9854 45.9 11.1254 46.076C11.2654 46.248 11.4554 46.334 11.6954 46.334C12.0354 46.334 12.2574 46.182 12.3614 45.878H13.2674C13.1754 46.238 12.9934 46.524 12.7214 46.736C12.4494 46.948 12.1094 47.054 11.7014 47.054C11.3814 47.054 11.0974 46.984 10.8494 46.844C10.6014 46.7 10.4074 46.5 10.2674 46.244C10.1274 45.984 10.0574 45.682 10.0574 45.338ZM16.9728 45.266C16.9728 45.386 16.9648 45.494 16.9488 45.59H14.5188C14.5388 45.83 14.6228 46.018 14.7708 46.154C14.9188 46.29 15.1008 46.358 15.3168 46.358C15.6288 46.358 15.8508 46.224 15.9828 45.956H16.8888C16.7928 46.276 16.6088 46.54 16.3368 46.748C16.0648 46.952 15.7308 47.054 15.3348 47.054C15.0148 47.054 14.7268 46.984 14.4708 46.844C14.2188 46.7 14.0208 46.498 13.8768 46.238C13.7368 45.978 13.6667 45.678 13.6667 45.338C13.6667 44.994 13.7368 44.692 13.8768 44.432C14.0168 44.172 14.2128 43.972 14.4648 43.832C14.7168 43.692 15.0068 43.622 15.3348 43.622C15.6508 43.622 15.9328 43.69 16.1808 43.826C16.4328 43.962 16.6268 44.156 16.7628 44.408C16.9028 44.656 16.9728 44.942 16.9728 45.266ZM16.1028 45.026C16.0988 44.81 16.0208 44.638 15.8688 44.51C15.7168 44.378 15.5308 44.312 15.3108 44.312C15.1028 44.312 14.9268 44.376 14.7828 44.504C14.6428 44.628 14.5568 44.802 14.5248 45.026H16.1028ZM18.4259 44.162C18.5339 44.002 18.6819 43.872 18.8699 43.772C19.0619 43.672 19.2799 43.622 19.5239 43.622C19.8079 43.622 20.0639 43.692 20.2919 43.832C20.5239 43.972 20.7059 44.172 20.8379 44.432C20.9739 44.688 21.0419 44.986 21.0419 45.326C21.0419 45.666 20.9739 45.968 20.8379 46.232C20.7059 46.492 20.5239 46.694 20.2919 46.838C20.0639 46.982 19.8079 47.054 19.5239 47.054C19.2759 47.054 19.0579 47.006 18.8699 46.91C18.6859 46.81 18.5379 46.682 18.4259 46.526V47H17.5859V42.56H18.4259V44.162ZM20.1839 45.326C20.1839 45.126 20.1419 44.954 20.0579 44.81C19.9779 44.662 19.8699 44.55 19.7339 44.474C19.6019 44.398 19.4579 44.36 19.3019 44.36C19.1499 44.36 19.0059 44.4 18.8699 44.48C18.7379 44.556 18.6299 44.668 18.5459 44.816C18.4659 44.964 18.4259 45.138 18.4259 45.338C18.4259 45.538 18.4659 45.712 18.5459 45.86C18.6299 46.008 18.7379 46.122 18.8699 46.202C19.0059 46.278 19.1499 46.316 19.3019 46.316C19.4579 46.316 19.6019 46.276 19.7339 46.196C19.8699 46.116 19.9779 46.002 20.0579 45.854C20.1419 45.706 20.1839 45.53 20.1839 45.326ZM23.1283 47.054C22.8083 47.054 22.5203 46.984 22.2643 46.844C22.0083 46.7 21.8063 46.498 21.6583 46.238C21.5143 45.978 21.4423 45.678 21.4423 45.338C21.4423 44.998 21.5163 44.698 21.6643 44.438C21.8163 44.178 22.0223 43.978 22.2823 43.838C22.5423 43.694 22.8323 43.622 23.1523 43.622C23.4723 43.622 23.7623 43.694 24.0223 43.838C24.2823 43.978 24.4863 44.178 24.6343 44.438C24.7863 44.698 24.8623 44.998 24.8623 45.338C24.8623 45.678 24.7843 45.978 24.6283 46.238C24.4763 46.498 24.2683 46.7 24.0043 46.844C23.7443 46.984 23.4523 47.054 23.1283 47.054ZM23.1283 46.322C23.2803 46.322 23.4223 46.286 23.5543 46.214C23.6903 46.138 23.7983 46.026 23.8783 45.878C23.9583 45.73 23.9983 45.55 23.9983 45.338C23.9983 45.022 23.9143 44.78 23.7463 44.612C23.5823 44.44 23.3803 44.354 23.1403 44.354C22.9003 44.354 22.6983 44.44 22.5343 44.612C22.3743 44.78 22.2943 45.022 22.2943 45.338C22.2943 45.654 22.3723 45.898 22.5283 46.07C22.6883 46.238 22.8883 46.322 23.1283 46.322ZM26.9545 47.054C26.6345 47.054 26.3465 46.984 26.0905 46.844C25.8345 46.7 25.6325 46.498 25.4845 46.238C25.3405 45.978 25.2685 45.678 25.2685 45.338C25.2685 44.998 25.3425 44.698 25.4905 44.438C25.6425 44.178 25.8485 43.978 26.1085 43.838C26.3685 43.694 26.6585 43.622 26.9785 43.622C27.2985 43.622 27.5885 43.694 27.8485 43.838C28.1085 43.978 28.3125 44.178 28.4605 44.438C28.6125 44.698 28.6885 44.998 28.6885 45.338C28.6885 45.678 28.6105 45.978 28.4545 46.238C28.3025 46.498 28.0945 46.7 27.8305 46.844C27.5705 46.984 27.2785 47.054 26.9545 47.054ZM26.9545 46.322C27.1065 46.322 27.2485 46.286 27.3805 46.214C27.5165 46.138 27.6245 46.026 27.7045 45.878C27.7845 45.73 27.8245 45.55 27.8245 45.338C27.8245 45.022 27.7405 44.78 27.5725 44.612C27.4085 44.44 27.2065 44.354 26.9665 44.354C26.7265 44.354 26.5245 44.44 26.3605 44.612C26.2005 44.78 26.1205 45.022 26.1205 45.338C26.1205 45.654 26.1985 45.898 26.3545 46.07C26.5145 46.238 26.7145 46.322 26.9545 46.322ZM31.2726 47L30.1446 45.584V47H29.3046V42.56H30.1446V45.086L31.2606 43.676H32.3526L30.8886 45.344L32.3646 47H31.2726ZM37.2922 44.108C37.2922 44.332 37.2382 44.542 37.1302 44.738C37.0262 44.934 36.8602 45.092 36.6322 45.212C36.4082 45.332 36.1242 45.392 35.7802 45.392H35.0782V47H34.2382V42.812H35.7802C36.1042 42.812 36.3802 42.868 36.6082 42.98C36.8362 43.092 37.0062 43.246 37.1182 43.442C37.2342 43.638 37.2922 43.86 37.2922 44.108ZM35.7442 44.714C35.9762 44.714 36.1482 44.662 36.2602 44.558C36.3722 44.45 36.4282 44.3 36.4282 44.108C36.4282 43.7 36.2002 43.496 35.7442 43.496H35.0782V44.714H35.7442ZM37.6726 45.326C37.6726 44.99 37.7386 44.692 37.8706 44.432C38.0066 44.172 38.1886 43.972 38.4166 43.832C38.6486 43.692 38.9066 43.622 39.1906 43.622C39.4386 43.622 39.6546 43.672 39.8386 43.772C40.0266 43.872 40.1766 43.998 40.2886 44.15V43.676H41.1346V47H40.2886V46.514C40.1806 46.67 40.0306 46.8 39.8386 46.904C39.6506 47.004 39.4326 47.054 39.1846 47.054C38.9046 47.054 38.6486 46.982 38.4166 46.838C38.1886 46.694 38.0066 46.492 37.8706 46.232C37.7386 45.968 37.6726 45.666 37.6726 45.326ZM40.2886 45.338C40.2886 45.134 40.2486 44.96 40.1686 44.816C40.0886 44.668 39.9806 44.556 39.8446 44.48C39.7086 44.4 39.5626 44.36 39.4066 44.36C39.2506 44.36 39.1066 44.398 38.9746 44.474C38.8426 44.55 38.7346 44.662 38.6506 44.81C38.5706 44.954 38.5306 45.126 38.5306 45.326C38.5306 45.526 38.5706 45.702 38.6506 45.854C38.7346 46.002 38.8426 46.116 38.9746 46.196C39.1106 46.276 39.2546 46.316 39.4066 46.316C39.5626 46.316 39.7086 46.278 39.8446 46.202C39.9806 46.122 40.0886 46.01 40.1686 45.866C40.2486 45.718 40.2886 45.542 40.2886 45.338ZM42.795 44.192C42.903 44.016 43.043 43.878 43.215 43.778C43.391 43.678 43.591 43.628 43.815 43.628V44.51H43.593C43.329 44.51 43.129 44.572 42.993 44.696C42.861 44.82 42.795 45.036 42.795 45.344V47H41.955V43.676H42.795V44.192ZM45.3588 44.366V45.974C45.3588 46.086 45.3848 46.168 45.4368 46.22C45.4928 46.268 45.5848 46.292 45.7128 46.292H46.1028V47H45.5748C44.8668 47 44.5128 46.656 44.5128 45.968V44.366H44.1168V43.676H44.5128V42.854H45.3588V43.676H46.1028V44.366H45.3588ZM48.549 43.628C48.945 43.628 49.265 43.754 49.509 44.006C49.753 44.254 49.875 44.602 49.875 45.05V47H49.035V45.164C49.035 44.9 48.969 44.698 48.837 44.558C48.705 44.414 48.525 44.342 48.297 44.342C48.065 44.342 47.881 44.414 47.745 44.558C47.613 44.698 47.547 44.9 47.547 45.164V47H46.707V43.676H47.547V44.09C47.659 43.946 47.801 43.834 47.973 43.754C48.149 43.67 48.341 43.628 48.549 43.628ZM53.7638 45.266C53.7638 45.386 53.7558 45.494 53.7398 45.59H51.3098C51.3298 45.83 51.4138 46.018 51.5618 46.154C51.7098 46.29 51.8918 46.358 52.1078 46.358C52.4198 46.358 52.6418 46.224 52.7738 45.956H53.6798C53.5838 46.276 53.3998 46.54 53.1278 46.748C52.8558 46.952 52.5218 47.054 52.1258 47.054C51.8058 47.054 51.5178 46.984 51.2618 46.844C51.0098 46.7 50.8118 46.498 50.6678 46.238C50.5278 45.978 50.4578 45.678 50.4578 45.338C50.4578 44.994 50.5278 44.692 50.6678 44.432C50.8078 44.172 51.0038 43.972 51.2558 43.832C51.5078 43.692 51.7978 43.622 52.1258 43.622C52.4418 43.622 52.7238 43.69 52.9718 43.826C53.2238 43.962 53.4178 44.156 53.5538 44.408C53.6938 44.656 53.7638 44.942 53.7638 45.266ZM52.8938 45.026C52.8898 44.81 52.8118 44.638 52.6598 44.51C52.5078 44.378 52.3218 44.312 52.1018 44.312C51.8938 44.312 51.7178 44.376 51.5738 44.504C51.4338 44.628 51.3478 44.802 51.3158 45.026H52.8938ZM55.2169 44.192C55.3249 44.016 55.4649 43.878 55.6369 43.778C55.8129 43.678 56.0129 43.628 56.2369 43.628V44.51H56.0149C55.7509 44.51 55.5509 44.572 55.4149 44.696C55.2829 44.82 55.2169 45.036 55.2169 45.344V47H54.3769V43.676H55.2169V44.192Z" fill="#54595F"/>
</svg>
