<svg width="59" height="57" viewBox="0 0 59 57" fill="none" xmlns="http://www.w3.org/2000/svg">
<rect width="59" height="57" rx="7" fill="white"/>
<path d="M37.7153 10H22.2847C18.8138 10 16 12.8138 16 16.2847V31.7153C16 35.1862 18.8138 38 22.2847 38H37.7153C41.1862 38 44 35.1862 44 31.7153V16.2847C44 12.8138 41.1862 10 37.7153 10Z" fill="#0B86CA"/>
<path d="M23.7594 21.6383H26.669V31.0266H23.7594V21.6383ZM25.2433 16.9733C25.5766 16.9733 25.9025 17.072 26.1798 17.257C26.4571 17.442 26.6734 17.705 26.8014 18.0128C26.9294 18.3206 26.9634 18.6594 26.8991 18.9865C26.8347 19.3136 26.675 19.6143 26.4399 19.8507C26.2049 20.0871 25.9051 20.2486 25.5784 20.3148C25.2517 20.381 24.9127 20.3489 24.6041 20.2227C24.2956 20.0965 24.0314 19.8817 23.8448 19.6054C23.6582 19.3292 23.5576 19.0039 23.5557 18.6705C23.5544 18.4481 23.5971 18.2276 23.6814 18.0217C23.7656 17.8159 23.8897 17.6287 24.0465 17.471C24.2034 17.3132 24.3898 17.1881 24.5952 17.1026C24.8006 17.0172 25.0208 16.9733 25.2433 16.9733Z" fill="white"/>
<path d="M28.5312 21.6384H31.3341V22.9187C31.6147 22.4398 32.02 22.0462 32.5068 21.7797C32.9936 21.5132 33.5437 21.384 34.0982 21.4057C37.0078 21.4057 37.5994 23.3454 37.5994 25.8767V31.0267H34.6898V26.4878C34.6898 25.4015 34.6898 23.9952 33.1768 23.9952C31.6638 23.9952 31.4311 25.1784 31.4311 26.4005V31.0461H28.5215L28.5312 21.6384Z" fill="white"/>
<path d="M6.10654 46.334H7.48654V47H5.26654V42.812H6.10654V46.334ZM8.44645 43.28C8.29845 43.28 8.17445 43.234 8.07445 43.142C7.97845 43.046 7.93045 42.928 7.93045 42.788C7.93045 42.648 7.97845 42.532 8.07445 42.44C8.17445 42.344 8.29845 42.296 8.44645 42.296C8.59445 42.296 8.71645 42.344 8.81245 42.44C8.91245 42.532 8.96245 42.648 8.96245 42.788C8.96245 42.928 8.91245 43.046 8.81245 43.142C8.71645 43.234 8.59445 43.28 8.44645 43.28ZM8.86045 43.676V47H8.02045V43.676H8.86045ZM11.5324 43.628C11.9284 43.628 12.2484 43.754 12.4924 44.006C12.7364 44.254 12.8584 44.602 12.8584 45.05V47H12.0184V45.164C12.0184 44.9 11.9524 44.698 11.8204 44.558C11.6884 44.414 11.5084 44.342 11.2804 44.342C11.0484 44.342 10.8644 44.414 10.7284 44.558C10.5964 44.698 10.5304 44.9 10.5304 45.164V47H9.69037V43.676H10.5304V44.09C10.6424 43.946 10.7844 43.834 10.9564 43.754C11.1324 43.67 11.3244 43.628 11.5324 43.628ZM15.6252 47L14.4972 45.584V47H13.6572V42.56H14.4972V45.086L15.6132 43.676H16.7052L15.2412 45.344L16.7172 47H15.6252ZM20.2511 45.266C20.2511 45.386 20.2431 45.494 20.2271 45.59H17.7971C17.8171 45.83 17.9011 46.018 18.0491 46.154C18.1971 46.29 18.3791 46.358 18.5951 46.358C18.9071 46.358 19.1291 46.224 19.2611 45.956H20.1671C20.0711 46.276 19.8871 46.54 19.6151 46.748C19.3431 46.952 19.0091 47.054 18.6131 47.054C18.2931 47.054 18.0051 46.984 17.7491 46.844C17.4971 46.7 17.2991 46.498 17.1551 46.238C17.0151 45.978 16.9451 45.678 16.9451 45.338C16.9451 44.994 17.0151 44.692 17.1551 44.432C17.2951 44.172 17.4911 43.972 17.7431 43.832C17.9951 43.692 18.2851 43.622 18.6131 43.622C18.9291 43.622 19.2111 43.69 19.4591 43.826C19.7111 43.962 19.9051 44.156 20.0411 44.408C20.1811 44.656 20.2511 44.942 20.2511 45.266ZM19.3811 45.026C19.3771 44.81 19.2991 44.638 19.1471 44.51C18.9951 44.378 18.8091 44.312 18.5891 44.312C18.3811 44.312 18.2051 44.376 18.0611 44.504C17.9211 44.628 17.8351 44.802 17.8031 45.026H19.3811ZM20.6482 45.326C20.6482 44.99 20.7142 44.692 20.8462 44.432C20.9822 44.172 21.1662 43.972 21.3982 43.832C21.6302 43.692 21.8882 43.622 22.1722 43.622C22.3882 43.622 22.5942 43.67 22.7902 43.766C22.9862 43.858 23.1422 43.982 23.2582 44.138V42.56H24.1102V47H23.2582V46.508C23.1542 46.672 23.0082 46.804 22.8202 46.904C22.6322 47.004 22.4142 47.054 22.1662 47.054C21.8862 47.054 21.6302 46.982 21.3982 46.838C21.1662 46.694 20.9822 46.492 20.8462 46.232C20.7142 45.968 20.6482 45.666 20.6482 45.326ZM23.2642 45.338C23.2642 45.134 23.2242 44.96 23.1442 44.816C23.0642 44.668 22.9562 44.556 22.8202 44.48C22.6842 44.4 22.5382 44.36 22.3822 44.36C22.2262 44.36 22.0822 44.398 21.9502 44.474C21.8182 44.55 21.7102 44.662 21.6262 44.81C21.5462 44.954 21.5062 45.126 21.5062 45.326C21.5062 45.526 21.5462 45.702 21.6262 45.854C21.7102 46.002 21.8182 46.116 21.9502 46.196C22.0862 46.276 22.2302 46.316 22.3822 46.316C22.5382 46.316 22.6842 46.278 22.8202 46.202C22.9562 46.122 23.0642 46.01 23.1442 45.866C23.2242 45.718 23.2642 45.542 23.2642 45.338ZM25.3566 43.28C25.2086 43.28 25.0846 43.234 24.9846 43.142C24.8886 43.046 24.8406 42.928 24.8406 42.788C24.8406 42.648 24.8886 42.532 24.9846 42.44C25.0846 42.344 25.2086 42.296 25.3566 42.296C25.5046 42.296 25.6266 42.344 25.7226 42.44C25.8226 42.532 25.8726 42.648 25.8726 42.788C25.8726 42.928 25.8226 43.046 25.7226 43.142C25.6266 43.234 25.5046 43.28 25.3566 43.28ZM25.7706 43.676V47H24.9306V43.676H25.7706ZM28.4425 43.628C28.8385 43.628 29.1585 43.754 29.4025 44.006C29.6465 44.254 29.7685 44.602 29.7685 45.05V47H28.9285V45.164C28.9285 44.9 28.8625 44.698 28.7305 44.558C28.5985 44.414 28.4185 44.342 28.1905 44.342C27.9585 44.342 27.7745 44.414 27.6385 44.558C27.5065 44.698 27.4405 44.9 27.4405 45.164V47H26.6005V43.676H27.4405V44.09C27.5525 43.946 27.6945 43.834 27.8665 43.754C28.0425 43.67 28.2345 43.628 28.4425 43.628ZM35.051 44.108C35.051 44.332 34.997 44.542 34.889 44.738C34.785 44.934 34.619 45.092 34.391 45.212C34.167 45.332 33.883 45.392 33.539 45.392H32.837V47H31.997V42.812H33.539C33.863 42.812 34.139 42.868 34.367 42.98C34.595 43.092 34.765 43.246 34.877 43.442C34.993 43.638 35.051 43.86 35.051 44.108ZM33.503 44.714C33.735 44.714 33.907 44.662 34.019 44.558C34.131 44.45 34.187 44.3 34.187 44.108C34.187 43.7 33.959 43.496 33.503 43.496H32.837V44.714H33.503ZM35.4314 45.326C35.4314 44.99 35.4974 44.692 35.6294 44.432C35.7654 44.172 35.9474 43.972 36.1754 43.832C36.4074 43.692 36.6654 43.622 36.9494 43.622C37.1974 43.622 37.4134 43.672 37.5974 43.772C37.7854 43.872 37.9354 43.998 38.0474 44.15V43.676H38.8934V47H38.0474V46.514C37.9394 46.67 37.7894 46.8 37.5974 46.904C37.4094 47.004 37.1914 47.054 36.9434 47.054C36.6634 47.054 36.4074 46.982 36.1754 46.838C35.9474 46.694 35.7654 46.492 35.6294 46.232C35.4974 45.968 35.4314 45.666 35.4314 45.326ZM38.0474 45.338C38.0474 45.134 38.0074 44.96 37.9274 44.816C37.8474 44.668 37.7394 44.556 37.6034 44.48C37.4674 44.4 37.3214 44.36 37.1654 44.36C37.0094 44.36 36.8654 44.398 36.7334 44.474C36.6014 44.55 36.4934 44.662 36.4094 44.81C36.3294 44.954 36.2894 45.126 36.2894 45.326C36.2894 45.526 36.3294 45.702 36.4094 45.854C36.4934 46.002 36.6014 46.116 36.7334 46.196C36.8694 46.276 37.0134 46.316 37.1654 46.316C37.3214 46.316 37.4674 46.278 37.6034 46.202C37.7394 46.122 37.8474 46.01 37.9274 45.866C38.0074 45.718 38.0474 45.542 38.0474 45.338ZM40.5538 44.192C40.6618 44.016 40.8018 43.878 40.9738 43.778C41.1498 43.678 41.3498 43.628 41.5738 43.628V44.51H41.3518C41.0878 44.51 40.8878 44.572 40.7518 44.696C40.6198 44.82 40.5538 45.036 40.5538 45.344V47H39.7138V43.676H40.5538V44.192ZM43.1176 44.366V45.974C43.1176 46.086 43.1436 46.168 43.1956 46.22C43.2516 46.268 43.3436 46.292 43.4716 46.292H43.8616V47H43.3336C42.6256 47 42.2716 46.656 42.2716 45.968V44.366H41.8756V43.676H42.2716V42.854H43.1176V43.676H43.8616V44.366H43.1176ZM46.3078 43.628C46.7038 43.628 47.0238 43.754 47.2678 44.006C47.5118 44.254 47.6338 44.602 47.6338 45.05V47H46.7938V45.164C46.7938 44.9 46.7278 44.698 46.5958 44.558C46.4638 44.414 46.2838 44.342 46.0558 44.342C45.8238 44.342 45.6398 44.414 45.5038 44.558C45.3718 44.698 45.3058 44.9 45.3058 45.164V47H44.4658V43.676H45.3058V44.09C45.4178 43.946 45.5598 43.834 45.7318 43.754C45.9078 43.67 46.0998 43.628 46.3078 43.628ZM51.5226 45.266C51.5226 45.386 51.5146 45.494 51.4986 45.59H49.0686C49.0886 45.83 49.1726 46.018 49.3206 46.154C49.4686 46.29 49.6506 46.358 49.8666 46.358C50.1786 46.358 50.4006 46.224 50.5326 45.956H51.4386C51.3426 46.276 51.1586 46.54 50.8866 46.748C50.6146 46.952 50.2806 47.054 49.8846 47.054C49.5646 47.054 49.2766 46.984 49.0206 46.844C48.7686 46.7 48.5706 46.498 48.4266 46.238C48.2866 45.978 48.2166 45.678 48.2166 45.338C48.2166 44.994 48.2866 44.692 48.4266 44.432C48.5666 44.172 48.7626 43.972 49.0146 43.832C49.2666 43.692 49.5566 43.622 49.8846 43.622C50.2006 43.622 50.4826 43.69 50.7306 43.826C50.9826 43.962 51.1766 44.156 51.3126 44.408C51.4526 44.656 51.5226 44.942 51.5226 45.266ZM50.6526 45.026C50.6486 44.81 50.5706 44.638 50.4186 44.51C50.2666 44.378 50.0806 44.312 49.8606 44.312C49.6526 44.312 49.4766 44.376 49.3326 44.504C49.1926 44.628 49.1066 44.802 49.0746 45.026H50.6526ZM52.9757 44.192C53.0837 44.016 53.2237 43.878 53.3957 43.778C53.5717 43.678 53.7717 43.628 53.9957 43.628V44.51H53.7737C53.5097 44.51 53.3097 44.572 53.1737 44.696C53.0417 44.82 52.9757 45.036 52.9757 45.344V47H52.1357V43.676H52.9757V44.192Z" fill="#54595F"/>
</svg>
